<mxfile host="Electron" modified="2023-04-06T03:46:10.316Z" agent="Mozilla/5.0 (Macintosh; Intel Mac OS X 10_15_7) AppleWebKit/537.36 (KHTML, like Gecko) draw.io/21.1.2 Chrome/106.0.5249.199 Electron/21.4.3 Safari/537.36" etag="XE5BZ0IY0ScrIEeKj-Zk" version="21.1.2" type="device" pages="6">
  <diagram name="Full" id="nWdo6QnWp99k7Q66_A_i">
    <mxGraphModel dx="980" dy="1166" grid="1" gridSize="10" guides="1" tooltips="1" connect="1" arrows="1" fold="1" page="1" pageScale="1" pageWidth="880" pageHeight="200" math="0" shadow="0">
      <root>
        <mxCell id="0" />
        <mxCell id="1" parent="0" />
        <mxCell id="TxTOkvefGZ0p-y365fc8-24" style="edgeStyle=orthogonalEdgeStyle;rounded=0;orthogonalLoop=1;jettySize=auto;html=1;exitX=0.5;exitY=1;exitDx=0;exitDy=0;entryX=0.5;entryY=1;entryDx=0;entryDy=0;strokeWidth=2;" edge="1" parent="1" source="TxTOkvefGZ0p-y365fc8-1" target="TxTOkvefGZ0p-y365fc8-2">
          <mxGeometry relative="1" as="geometry">
            <Array as="points">
              <mxPoint x="80" y="160" />
              <mxPoint x="160" y="160" />
            </Array>
          </mxGeometry>
        </mxCell>
        <mxCell id="TxTOkvefGZ0p-y365fc8-25" style="edgeStyle=orthogonalEdgeStyle;rounded=0;orthogonalLoop=1;jettySize=auto;html=1;exitX=0.5;exitY=0;exitDx=0;exitDy=0;entryX=0.25;entryY=0;entryDx=0;entryDy=0;strokeWidth=2;endArrow=none;endFill=0;" edge="1" parent="1" source="TxTOkvefGZ0p-y365fc8-1" target="TxTOkvefGZ0p-y365fc8-5">
          <mxGeometry relative="1" as="geometry" />
        </mxCell>
        <mxCell id="TxTOkvefGZ0p-y365fc8-27" style="edgeStyle=orthogonalEdgeStyle;rounded=0;orthogonalLoop=1;jettySize=auto;html=1;exitX=0.5;exitY=1;exitDx=0;exitDy=0;entryX=0.5;entryY=1;entryDx=0;entryDy=0;strokeWidth=2;" edge="1" parent="1" source="TxTOkvefGZ0p-y365fc8-1" target="TxTOkvefGZ0p-y365fc8-3">
          <mxGeometry relative="1" as="geometry">
            <Array as="points">
              <mxPoint x="80" y="160" />
              <mxPoint x="240" y="160" />
            </Array>
          </mxGeometry>
        </mxCell>
        <mxCell id="TxTOkvefGZ0p-y365fc8-1" value="Name" style="html=1;whiteSpace=wrap;fontStyle=4" vertex="1" parent="1">
          <mxGeometry x="40" y="80" width="80" height="40" as="geometry" />
        </mxCell>
        <mxCell id="TxTOkvefGZ0p-y365fc8-2" value="Qualify" style="html=1;whiteSpace=wrap;" vertex="1" parent="1">
          <mxGeometry x="120" y="80" width="80" height="40" as="geometry" />
        </mxCell>
        <mxCell id="TxTOkvefGZ0p-y365fc8-3" value="Promotion Code" style="html=1;whiteSpace=wrap;" vertex="1" parent="1">
          <mxGeometry x="200" y="80" width="80" height="40" as="geometry" />
        </mxCell>
        <mxCell id="TxTOkvefGZ0p-y365fc8-4" value="Year" style="html=1;whiteSpace=wrap;" vertex="1" parent="1">
          <mxGeometry x="280" y="80" width="80" height="40" as="geometry" />
        </mxCell>
        <mxCell id="TxTOkvefGZ0p-y365fc8-21" style="edgeStyle=orthogonalEdgeStyle;rounded=0;orthogonalLoop=1;jettySize=auto;html=1;exitX=0.5;exitY=0;exitDx=0;exitDy=0;entryX=0.5;entryY=0;entryDx=0;entryDy=0;startArrow=classic;startFill=1;strokeWidth=2;" edge="1" parent="1" source="TxTOkvefGZ0p-y365fc8-9" target="TxTOkvefGZ0p-y365fc8-10">
          <mxGeometry relative="1" as="geometry">
            <Array as="points">
              <mxPoint x="720" y="40" />
              <mxPoint x="800" y="40" />
            </Array>
          </mxGeometry>
        </mxCell>
        <mxCell id="TxTOkvefGZ0p-y365fc8-22" style="edgeStyle=orthogonalEdgeStyle;rounded=0;orthogonalLoop=1;jettySize=auto;html=1;exitX=0.5;exitY=0;exitDx=0;exitDy=0;entryX=0.5;entryY=0;entryDx=0;entryDy=0;strokeWidth=2;startArrow=classic;startFill=1;" edge="1" parent="1" source="TxTOkvefGZ0p-y365fc8-2" target="TxTOkvefGZ0p-y365fc8-9">
          <mxGeometry relative="1" as="geometry">
            <Array as="points">
              <mxPoint x="160" y="40" />
              <mxPoint x="720" y="40" />
            </Array>
          </mxGeometry>
        </mxCell>
        <mxCell id="TxTOkvefGZ0p-y365fc8-5" value="Course" style="html=1;whiteSpace=wrap;fontStyle=4" vertex="1" parent="1">
          <mxGeometry x="360" y="80" width="80" height="40" as="geometry" />
        </mxCell>
        <mxCell id="TxTOkvefGZ0p-y365fc8-6" value="Convenor" style="html=1;whiteSpace=wrap;" vertex="1" parent="1">
          <mxGeometry x="440" y="80" width="80" height="40" as="geometry" />
        </mxCell>
        <mxCell id="TxTOkvefGZ0p-y365fc8-7" value="Prerequisites" style="html=1;whiteSpace=wrap;" vertex="1" parent="1">
          <mxGeometry x="520" y="80" width="80" height="40" as="geometry" />
        </mxCell>
        <mxCell id="TxTOkvefGZ0p-y365fc8-8" value="Periods" style="html=1;whiteSpace=wrap;" vertex="1" parent="1">
          <mxGeometry x="600" y="80" width="80" height="40" as="geometry" />
        </mxCell>
        <mxCell id="TxTOkvefGZ0p-y365fc8-28" style="edgeStyle=orthogonalEdgeStyle;rounded=0;orthogonalLoop=1;jettySize=auto;html=1;exitX=0.5;exitY=1;exitDx=0;exitDy=0;entryX=0.5;entryY=1;entryDx=0;entryDy=0;strokeWidth=2;" edge="1" parent="1" source="TxTOkvefGZ0p-y365fc8-9" target="TxTOkvefGZ0p-y365fc8-10">
          <mxGeometry relative="1" as="geometry">
            <Array as="points">
              <mxPoint x="720" y="160" />
              <mxPoint x="800" y="160" />
            </Array>
          </mxGeometry>
        </mxCell>
        <mxCell id="TxTOkvefGZ0p-y365fc8-9" value="Mark" style="html=1;whiteSpace=wrap;" vertex="1" parent="1">
          <mxGeometry x="680" y="80" width="80" height="40" as="geometry" />
        </mxCell>
        <mxCell id="TxTOkvefGZ0p-y365fc8-10" value="Symbol" style="html=1;whiteSpace=wrap;" vertex="1" parent="1">
          <mxGeometry x="760" y="80" width="80" height="40" as="geometry" />
        </mxCell>
      </root>
    </mxGraphModel>
  </diagram>
  <diagram name="2NF_1" id="Ls3iGyw86W2r04-WHynu">
    <mxGraphModel dx="686" dy="816" grid="1" gridSize="10" guides="1" tooltips="1" connect="1" arrows="1" fold="1" page="1" pageScale="1" pageWidth="320" pageHeight="160" math="0" shadow="0">
      <root>
        <mxCell id="MXP4uoEaEVsJ-qGPPvJG-0" />
        <mxCell id="MXP4uoEaEVsJ-qGPPvJG-1" parent="MXP4uoEaEVsJ-qGPPvJG-0" />
        <mxCell id="MXP4uoEaEVsJ-qGPPvJG-2" style="edgeStyle=orthogonalEdgeStyle;rounded=0;orthogonalLoop=1;jettySize=auto;html=1;exitX=0.5;exitY=0;exitDx=0;exitDy=0;entryX=0.5;entryY=0;entryDx=0;entryDy=0;strokeWidth=2;" edge="1" parent="MXP4uoEaEVsJ-qGPPvJG-1" source="MXP4uoEaEVsJ-qGPPvJG-5" target="MXP4uoEaEVsJ-qGPPvJG-6">
          <mxGeometry relative="1" as="geometry">
            <Array as="points">
              <mxPoint x="80" y="40" />
              <mxPoint x="160" y="40" />
            </Array>
          </mxGeometry>
        </mxCell>
        <mxCell id="MXP4uoEaEVsJ-qGPPvJG-4" style="edgeStyle=orthogonalEdgeStyle;rounded=0;orthogonalLoop=1;jettySize=auto;html=1;exitX=0.5;exitY=0;exitDx=0;exitDy=0;entryX=0.5;entryY=0;entryDx=0;entryDy=0;strokeWidth=2;" edge="1" parent="MXP4uoEaEVsJ-qGPPvJG-1" source="MXP4uoEaEVsJ-qGPPvJG-5" target="MXP4uoEaEVsJ-qGPPvJG-7">
          <mxGeometry relative="1" as="geometry">
            <Array as="points">
              <mxPoint x="80" y="40" />
              <mxPoint x="240" y="40" />
            </Array>
          </mxGeometry>
        </mxCell>
        <mxCell id="MXP4uoEaEVsJ-qGPPvJG-5" value="Name" style="html=1;whiteSpace=wrap;fontStyle=4" vertex="1" parent="MXP4uoEaEVsJ-qGPPvJG-1">
          <mxGeometry x="40" y="80" width="80" height="40" as="geometry" />
        </mxCell>
        <mxCell id="MXP4uoEaEVsJ-qGPPvJG-6" value="Qualify" style="html=1;whiteSpace=wrap;" vertex="1" parent="MXP4uoEaEVsJ-qGPPvJG-1">
          <mxGeometry x="120" y="80" width="80" height="40" as="geometry" />
        </mxCell>
        <mxCell id="MXP4uoEaEVsJ-qGPPvJG-7" value="Promotion Code" style="html=1;whiteSpace=wrap;" vertex="1" parent="MXP4uoEaEVsJ-qGPPvJG-1">
          <mxGeometry x="200" y="80" width="80" height="40" as="geometry" />
        </mxCell>
      </root>
    </mxGraphModel>
  </diagram>
  <diagram name="2NF_2" id="W8yqzFiFNIUeCTHl-yaN">
    <mxGraphModel dx="686" dy="816" grid="1" gridSize="10" guides="1" tooltips="1" connect="1" arrows="1" fold="1" page="1" pageScale="1" pageWidth="480" pageHeight="200" math="0" shadow="0">
      <root>
        <mxCell id="7h-fWrhytlPSgMqyccjA-0" />
        <mxCell id="7h-fWrhytlPSgMqyccjA-1" parent="7h-fWrhytlPSgMqyccjA-0" />
        <mxCell id="7h-fWrhytlPSgMqyccjA-3" style="edgeStyle=orthogonalEdgeStyle;rounded=0;orthogonalLoop=1;jettySize=auto;html=1;exitX=0.5;exitY=0;exitDx=0;exitDy=0;entryX=0.5;entryY=0;entryDx=0;entryDy=0;strokeWidth=2;endArrow=none;endFill=0;" edge="1" parent="7h-fWrhytlPSgMqyccjA-1" source="7h-fWrhytlPSgMqyccjA-5" target="7h-fWrhytlPSgMqyccjA-11">
          <mxGeometry relative="1" as="geometry" />
        </mxCell>
        <mxCell id="7h-fWrhytlPSgMqyccjA-5" value="Name" style="html=1;whiteSpace=wrap;fontStyle=4" vertex="1" parent="7h-fWrhytlPSgMqyccjA-1">
          <mxGeometry x="40" y="80" width="80" height="40" as="geometry" />
        </mxCell>
        <mxCell id="7h-fWrhytlPSgMqyccjA-6" value="Qualify" style="html=1;whiteSpace=wrap;" vertex="1" parent="7h-fWrhytlPSgMqyccjA-1">
          <mxGeometry x="200" y="80" width="80" height="40" as="geometry" />
        </mxCell>
        <mxCell id="7h-fWrhytlPSgMqyccjA-9" style="edgeStyle=orthogonalEdgeStyle;rounded=0;orthogonalLoop=1;jettySize=auto;html=1;exitX=0.5;exitY=0;exitDx=0;exitDy=0;entryX=0.5;entryY=0;entryDx=0;entryDy=0;startArrow=classic;startFill=1;strokeWidth=2;" edge="1" parent="7h-fWrhytlPSgMqyccjA-1" source="7h-fWrhytlPSgMqyccjA-16" target="7h-fWrhytlPSgMqyccjA-17">
          <mxGeometry relative="1" as="geometry">
            <Array as="points">
              <mxPoint x="320" y="40" />
              <mxPoint x="400" y="40" />
            </Array>
          </mxGeometry>
        </mxCell>
        <mxCell id="7h-fWrhytlPSgMqyccjA-10" style="edgeStyle=orthogonalEdgeStyle;rounded=0;orthogonalLoop=1;jettySize=auto;html=1;exitX=0.5;exitY=0;exitDx=0;exitDy=0;entryX=0.5;entryY=0;entryDx=0;entryDy=0;strokeWidth=2;startArrow=classic;startFill=1;" edge="1" parent="7h-fWrhytlPSgMqyccjA-1" source="7h-fWrhytlPSgMqyccjA-6" target="7h-fWrhytlPSgMqyccjA-16">
          <mxGeometry relative="1" as="geometry">
            <Array as="points">
              <mxPoint x="240" y="40" />
              <mxPoint x="320" y="40" />
            </Array>
          </mxGeometry>
        </mxCell>
        <mxCell id="qI-5uDrxd3K9JY08kJJo-0" style="edgeStyle=orthogonalEdgeStyle;rounded=0;orthogonalLoop=1;jettySize=auto;html=1;exitX=0.5;exitY=0;exitDx=0;exitDy=0;entryX=0.5;entryY=0;entryDx=0;entryDy=0;strokeWidth=2;" edge="1" parent="7h-fWrhytlPSgMqyccjA-1" source="7h-fWrhytlPSgMqyccjA-11" target="7h-fWrhytlPSgMqyccjA-6">
          <mxGeometry relative="1" as="geometry">
            <Array as="points">
              <mxPoint x="160" y="60" />
              <mxPoint x="120" y="60" />
              <mxPoint x="120" y="40" />
              <mxPoint x="240" y="40" />
            </Array>
          </mxGeometry>
        </mxCell>
        <mxCell id="7h-fWrhytlPSgMqyccjA-11" value="Course" style="html=1;whiteSpace=wrap;fontStyle=4" vertex="1" parent="7h-fWrhytlPSgMqyccjA-1">
          <mxGeometry x="120" y="80" width="80" height="40" as="geometry" />
        </mxCell>
        <mxCell id="7h-fWrhytlPSgMqyccjA-15" style="edgeStyle=orthogonalEdgeStyle;rounded=0;orthogonalLoop=1;jettySize=auto;html=1;exitX=0.5;exitY=1;exitDx=0;exitDy=0;entryX=0.5;entryY=1;entryDx=0;entryDy=0;strokeWidth=2;" edge="1" parent="7h-fWrhytlPSgMqyccjA-1" source="7h-fWrhytlPSgMqyccjA-16" target="7h-fWrhytlPSgMqyccjA-17">
          <mxGeometry relative="1" as="geometry">
            <Array as="points">
              <mxPoint x="320" y="160" />
              <mxPoint x="400" y="160" />
            </Array>
          </mxGeometry>
        </mxCell>
        <mxCell id="7h-fWrhytlPSgMqyccjA-16" value="Mark" style="html=1;whiteSpace=wrap;" vertex="1" parent="7h-fWrhytlPSgMqyccjA-1">
          <mxGeometry x="280" y="80" width="80" height="40" as="geometry" />
        </mxCell>
        <mxCell id="7h-fWrhytlPSgMqyccjA-17" value="Symbol" style="html=1;whiteSpace=wrap;" vertex="1" parent="7h-fWrhytlPSgMqyccjA-1">
          <mxGeometry x="360" y="80" width="80" height="40" as="geometry" />
        </mxCell>
      </root>
    </mxGraphModel>
  </diagram>
  <diagram name="3NF_1" id="ANamdbZtVTjlOp0a-Vvb">
    <mxGraphModel dx="686" dy="816" grid="1" gridSize="10" guides="1" tooltips="1" connect="1" arrows="1" fold="1" page="1" pageScale="1" pageWidth="320" pageHeight="160" math="0" shadow="0">
      <root>
        <mxCell id="rNHWCQXDzodVTFzo1Lb8-0" />
        <mxCell id="rNHWCQXDzodVTFzo1Lb8-1" parent="rNHWCQXDzodVTFzo1Lb8-0" />
        <mxCell id="rNHWCQXDzodVTFzo1Lb8-2" style="edgeStyle=orthogonalEdgeStyle;rounded=0;orthogonalLoop=1;jettySize=auto;html=1;exitX=0.5;exitY=0;exitDx=0;exitDy=0;entryX=0.5;entryY=0;entryDx=0;entryDy=0;strokeWidth=2;" edge="1" parent="rNHWCQXDzodVTFzo1Lb8-1" source="rNHWCQXDzodVTFzo1Lb8-4" target="rNHWCQXDzodVTFzo1Lb8-5">
          <mxGeometry relative="1" as="geometry">
            <Array as="points">
              <mxPoint x="80" y="40" />
              <mxPoint x="160" y="40" />
            </Array>
          </mxGeometry>
        </mxCell>
        <mxCell id="rNHWCQXDzodVTFzo1Lb8-3" style="edgeStyle=orthogonalEdgeStyle;rounded=0;orthogonalLoop=1;jettySize=auto;html=1;exitX=0.5;exitY=0;exitDx=0;exitDy=0;entryX=0.5;entryY=0;entryDx=0;entryDy=0;strokeWidth=2;" edge="1" parent="rNHWCQXDzodVTFzo1Lb8-1" source="rNHWCQXDzodVTFzo1Lb8-4" target="rNHWCQXDzodVTFzo1Lb8-6">
          <mxGeometry relative="1" as="geometry">
            <Array as="points">
              <mxPoint x="80" y="40" />
              <mxPoint x="240" y="40" />
            </Array>
          </mxGeometry>
        </mxCell>
        <mxCell id="rNHWCQXDzodVTFzo1Lb8-4" value="Name" style="html=1;whiteSpace=wrap;fontStyle=4" vertex="1" parent="rNHWCQXDzodVTFzo1Lb8-1">
          <mxGeometry x="40" y="80" width="80" height="40" as="geometry" />
        </mxCell>
        <mxCell id="rNHWCQXDzodVTFzo1Lb8-5" value="Qualify" style="html=1;whiteSpace=wrap;" vertex="1" parent="rNHWCQXDzodVTFzo1Lb8-1">
          <mxGeometry x="120" y="80" width="80" height="40" as="geometry" />
        </mxCell>
        <mxCell id="rNHWCQXDzodVTFzo1Lb8-6" value="Promotion Code" style="html=1;whiteSpace=wrap;" vertex="1" parent="rNHWCQXDzodVTFzo1Lb8-1">
          <mxGeometry x="200" y="80" width="80" height="40" as="geometry" />
        </mxCell>
      </root>
    </mxGraphModel>
  </diagram>
  <diagram name="3NF_2" id="63XWXJ4k8jL4rlzuBthk">
    <mxGraphModel dx="686" dy="816" grid="1" gridSize="10" guides="1" tooltips="1" connect="1" arrows="1" fold="1" page="1" pageScale="1" pageWidth="320" pageHeight="160" math="0" shadow="0">
      <root>
        <mxCell id="HJryDUYVQzgeovfBpShP-0" />
        <mxCell id="HJryDUYVQzgeovfBpShP-1" parent="HJryDUYVQzgeovfBpShP-0" />
        <mxCell id="HJryDUYVQzgeovfBpShP-2" style="edgeStyle=orthogonalEdgeStyle;rounded=0;orthogonalLoop=1;jettySize=auto;html=1;exitX=0.5;exitY=0;exitDx=0;exitDy=0;entryX=0.5;entryY=0;entryDx=0;entryDy=0;strokeWidth=2;endArrow=none;endFill=0;" edge="1" parent="HJryDUYVQzgeovfBpShP-1" source="HJryDUYVQzgeovfBpShP-3" target="HJryDUYVQzgeovfBpShP-8">
          <mxGeometry relative="1" as="geometry" />
        </mxCell>
        <mxCell id="HJryDUYVQzgeovfBpShP-3" value="Name" style="html=1;whiteSpace=wrap;fontStyle=4" vertex="1" parent="HJryDUYVQzgeovfBpShP-1">
          <mxGeometry x="40" y="80" width="80" height="40" as="geometry" />
        </mxCell>
        <mxCell id="HJryDUYVQzgeovfBpShP-4" value="Mark" style="html=1;whiteSpace=wrap;" vertex="1" parent="HJryDUYVQzgeovfBpShP-1">
          <mxGeometry x="200" y="80" width="80" height="40" as="geometry" />
        </mxCell>
        <mxCell id="HJryDUYVQzgeovfBpShP-7" style="edgeStyle=orthogonalEdgeStyle;rounded=0;orthogonalLoop=1;jettySize=auto;html=1;exitX=0.5;exitY=0;exitDx=0;exitDy=0;entryX=0.5;entryY=0;entryDx=0;entryDy=0;strokeWidth=2;" edge="1" parent="HJryDUYVQzgeovfBpShP-1" source="HJryDUYVQzgeovfBpShP-8" target="HJryDUYVQzgeovfBpShP-4">
          <mxGeometry relative="1" as="geometry">
            <Array as="points">
              <mxPoint x="160" y="60" />
              <mxPoint x="120" y="60" />
              <mxPoint x="120" y="40" />
              <mxPoint x="240" y="40" />
            </Array>
          </mxGeometry>
        </mxCell>
        <mxCell id="HJryDUYVQzgeovfBpShP-8" value="Course" style="html=1;whiteSpace=wrap;fontStyle=4" vertex="1" parent="HJryDUYVQzgeovfBpShP-1">
          <mxGeometry x="120" y="80" width="80" height="40" as="geometry" />
        </mxCell>
      </root>
    </mxGraphModel>
  </diagram>
  <diagram name="3NF_3" id="LOB2af_UEALhm3jclb4H">
    <mxGraphModel dx="686" dy="816" grid="1" gridSize="10" guides="1" tooltips="1" connect="1" arrows="1" fold="1" page="1" pageScale="1" pageWidth="320" pageHeight="160" math="0" shadow="0">
      <root>
        <mxCell id="KLqG2nyJDHk9cPO7uqKH-0" />
        <mxCell id="KLqG2nyJDHk9cPO7uqKH-1" parent="KLqG2nyJDHk9cPO7uqKH-0" />
        <mxCell id="3JV1_5U6TiKCdVBqBSkn-0" style="edgeStyle=orthogonalEdgeStyle;rounded=0;orthogonalLoop=1;jettySize=auto;html=1;exitX=0.5;exitY=0;exitDx=0;exitDy=0;entryX=0.5;entryY=0;entryDx=0;entryDy=0;strokeWidth=2;" edge="1" parent="KLqG2nyJDHk9cPO7uqKH-1" source="KLqG2nyJDHk9cPO7uqKH-4" target="KLqG2nyJDHk9cPO7uqKH-11">
          <mxGeometry relative="1" as="geometry">
            <Array as="points">
              <mxPoint x="80" y="40" />
              <mxPoint x="240" y="40" />
            </Array>
          </mxGeometry>
        </mxCell>
        <mxCell id="3JV1_5U6TiKCdVBqBSkn-1" style="edgeStyle=orthogonalEdgeStyle;rounded=0;orthogonalLoop=1;jettySize=auto;html=1;exitX=0.5;exitY=0;exitDx=0;exitDy=0;entryX=0.5;entryY=0;entryDx=0;entryDy=0;strokeWidth=2;" edge="1" parent="KLqG2nyJDHk9cPO7uqKH-1" source="KLqG2nyJDHk9cPO7uqKH-4" target="KLqG2nyJDHk9cPO7uqKH-10">
          <mxGeometry relative="1" as="geometry">
            <Array as="points">
              <mxPoint x="80" y="40" />
              <mxPoint x="160" y="40" />
            </Array>
          </mxGeometry>
        </mxCell>
        <mxCell id="KLqG2nyJDHk9cPO7uqKH-4" value="Mark" style="html=1;whiteSpace=wrap;" vertex="1" parent="KLqG2nyJDHk9cPO7uqKH-1">
          <mxGeometry x="40" y="80" width="80" height="40" as="geometry" />
        </mxCell>
        <mxCell id="KLqG2nyJDHk9cPO7uqKH-10" value="Qualify" style="html=1;whiteSpace=wrap;" vertex="1" parent="KLqG2nyJDHk9cPO7uqKH-1">
          <mxGeometry x="120" y="80" width="80" height="40" as="geometry" />
        </mxCell>
        <mxCell id="KLqG2nyJDHk9cPO7uqKH-11" value="Symbol" style="html=1;whiteSpace=wrap;" vertex="1" parent="KLqG2nyJDHk9cPO7uqKH-1">
          <mxGeometry x="200" y="80" width="80" height="40" as="geometry" />
        </mxCell>
      </root>
    </mxGraphModel>
  </diagram>
</mxfile>
